<svg xmlns="http://www.w3.org/2000/svg" width="45.166" height="45.166" viewBox="0 0 45.166 45.166"><defs><style>.a{fill:#fd0;}</style></defs><path class="a" d="M211.963,204.478l-7.631-7.631,3.743-3.743a1.323,1.323,0,0,0-.517-2.191L185.1,183.428a1.323,1.323,0,0,0-1.674,1.674l7.485,22.456a1.323,1.323,0,0,0,2.191.517l3.743-3.743,7.631,7.631a1.323,1.323,0,0,0,1.871,0l5.614-5.614A1.323,1.323,0,0,0,211.963,204.478Zm-6.55,4.678-7.631-7.631a1.323,1.323,0,0,0-1.871,0l-3.164,3.164-5.971-17.914,17.914,5.971-3.164,3.164a1.324,1.324,0,0,0,0,1.871l7.631,7.631Z" transform="translate(-167.185 -167.185)"/><path class="a" d="M181.323,10.586a1.323,1.323,0,0,0,1.323-1.323V1.323a1.323,1.323,0,1,0-2.646,0V9.263A1.323,1.323,0,0,0,181.323,10.586Z" transform="translate(-164.121)"/><path class="a" d="M54.979,53.108a1.323,1.323,0,0,0-1.871,1.871l5.614,5.614a1.323,1.323,0,0,0,1.871-1.871Z" transform="translate(-48.07 -48.07)"/><path class="a" d="M58.722,244.027l-5.614,5.614a1.323,1.323,0,1,0,1.871,1.871l5.614-5.614a1.323,1.323,0,0,0-1.871-1.871Z" transform="translate(-48.07 -222.147)"/><path class="a" d="M245.9,60.593l5.614-5.614a1.323,1.323,0,1,0-1.871-1.871l-5.614,5.614a1.323,1.323,0,1,0,1.871,1.871Z" transform="translate(-222.147 -48.07)"/><path class="a" d="M10.586,181.323A1.323,1.323,0,0,0,9.263,180H1.323a1.323,1.323,0,1,0,0,2.646H9.263A1.323,1.323,0,0,0,10.586,181.323Z" transform="translate(0 -164.121)"/></svg>