<svg xmlns="http://www.w3.org/2000/svg" width="76.804" height="76.521" viewBox="0 0 76.804 76.521"><defs><style>.a{fill:#03a9b8;}</style></defs><g transform="translate(-482.598 -621)"><circle class="a" cx="13" cy="13" r="13" transform="translate(498 637)"/><g transform="translate(482.598 620.056)"><g transform="translate(0 0.944)"><g transform="translate(0 0)"><path d="M44.771,5.849A28.717,28.717,0,1,0,28.716,58.375a1.143,1.143,0,1,0,0-2.286A26.43,26.43,0,1,1,43.492,7.743a1.143,1.143,0,1,0,1.279-1.894Z" transform="translate(0 -0.944)"/></g></g><g transform="translate(32.977 51.411)"><path d="M231.895,337.882a1.143,1.143,0,0,0-1.586-.31,26.163,26.163,0,0,1-9.55,3.976,1.143,1.143,0,1,0,.446,2.242,28.433,28.433,0,0,0,10.38-4.321A1.143,1.143,0,0,0,231.895,337.882Z" transform="translate(-219.838 -337.377)"/></g><g transform="translate(5.408 6.353)"><path d="M75.6,75.435a1.143,1.143,0,0,0-1.616-.026,20.888,20.888,0,0,1-14.618,5.919H59.2A21.022,21.022,0,1,1,73.979,45.2a1.143,1.143,0,0,0,1.59-1.642A23.307,23.307,0,1,0,59.183,83.613h.179A23.162,23.162,0,0,0,75.57,77.051,1.143,1.143,0,0,0,75.6,75.435Z" transform="translate(-36.05 -36.999)"/></g><path class="a" d="M47.66,13.274h5l.222,30.184H47.66Z" transform="translate(15.365 3)"/><g transform="translate(37.893 0.944)"><g transform="translate(0 0)"><path d="M291.441,58.75a1.143,1.143,0,0,0-1.063-.723h-7.205V39.864a1.143,1.143,0,1,0-2.286,0V59.17a1.143,1.143,0,0,0,1.143,1.143h5.456l-15.42,14.443-15.42-14.443H262.1a1.143,1.143,0,0,0,1.143-1.143V3.23h17.642V35.292a1.143,1.143,0,0,0,2.286,0V2.087A1.143,1.143,0,0,0,282.03.944H262.1a1.143,1.143,0,0,0-1.143,1.143v55.94h-7.205A1.143,1.143,0,0,0,252.972,60l18.312,17.152a1.143,1.143,0,0,0,1.562,0L291.159,60A1.142,1.142,0,0,0,291.441,58.75Z" transform="translate(-252.611 -0.944)"/></g></g></g><path d="M67.744.5a.5.5,0,0,0-.5-.5H56.693a.5.5,0,0,0,0,1h3.021a4.037,4.037,0,0,1,4,3.49H56.7a.5.5,0,0,0,0,1h7.014a4.035,4.035,0,0,1-4,3.539H56.693a.5.5,0,0,0-.344.867l7.542,7.129A.506.506,0,0,0,64.6,17a.509.509,0,0,0-.02-.713l-6.63-6.266h1.765a5.036,5.036,0,0,0,5-4.536h2.532a.5.5,0,0,0,0-1H64.714a4.991,4.991,0,0,0-2-3.49h4.531A.5.5,0,0,0,67.744.5Z" transform="translate(449.888 643.474)"/></g></svg>