<svg xmlns="http://www.w3.org/2000/svg" width="74.564" height="68.567" viewBox="0 0 74.564 68.567"><defs><style>.a{fill:none;stroke:#000;stroke-linecap:round;stroke-linejoin:round;stroke-width:2px;}.b{fill:#1d2338;}</style></defs><g transform="translate(1)"><rect class="a" width="72.564" height="47.248" transform="translate(0 16.791)"/><g transform="translate(2.799 19.017)"><path d="M422.7,153.244a1.041,1.041,0,0,1-1.042-1.042V132.887h-62.8v13.229a1.041,1.041,0,1,1-2.082,0v-14.27a1.04,1.04,0,0,1,1.04-1.042H422.7a1.04,1.04,0,0,1,1.04,1.042V152.2A1.04,1.04,0,0,1,422.7,153.244Z" transform="translate(-356.771 -130.805)"/></g><g transform="translate(2.799 39.374)"><path d="M422.7,171.419H357.811a1.04,1.04,0,0,1-1.04-1.042V150.021a1.041,1.041,0,0,1,2.082,0v19.316h62.8v-9.228a1.041,1.041,0,1,1,2.082,0v10.268A1.04,1.04,0,0,1,422.7,171.419Z" transform="translate(-356.771 -148.981)"/></g><g transform="translate(12.853 0)"><path class="b" d="M389.176,131.658a1.036,1.036,0,0,1-.6-.19L366.19,115.719a1.041,1.041,0,1,1,1.2-1.7l21.852,15.373,9.322-5.192a1.041,1.041,0,0,1,1.013,1.82l-9.892,5.509A1.037,1.037,0,0,1,389.176,131.658Z" transform="translate(-365.748 -113.825)"/></g><g transform="translate(21.704 66.484)"><path class="b" d="M400.945,175.269H374.691a1.042,1.042,0,0,1,0-2.083h26.254a1.042,1.042,0,1,1,0,2.083Z" transform="translate(-373.651 -173.186)"/></g></g></svg>