<svg xmlns="http://www.w3.org/2000/svg" width="58.044" height="74.973" viewBox="0 0 58.044 74.973"><defs><style>.a{fill:#03a9b8;}</style></defs><g transform="translate(-1103 -308)"><path class="a" d="M58.462,86.583a4.948,4.948,0,0,1-.739-1.02c-.141-.362-1.124-.869-.983-1.231.749-2.714-4.071-3.4-3.971-6.113.133-3.682.216-7.351.383-11.033,0-1.427-1.082-4.293,1.664-5.1a11.394,11.394,0,0,1,2.846-.306l15.576-.395c2.346,0,3.578.357,3.744,1.771.2,1.682-1.531,3.363-1.431,5.1.233,3.822.349,7.771.433,11.657,0,1.987-5.642,8.867-5.675,6.892-4.643,1.583.119,1.019-1.245,1.019C59.111,87.825,59.527,87.207,58.462,86.583Z" transform="translate(1083 264)"/><g transform="translate(1103 308)"><path d="M35.819,40.469a20.428,20.428,0,0,0,3.844,3.789,8.464,8.464,0,0,0,10.157,0,20.656,20.656,0,0,0,8.224-16.446V16.929H43.533v-2.27a7.58,7.58,0,0,0-5.287-7.235l-.381-.573A15.388,15.388,0,0,0,9.674,15.387V27.812a6.052,6.052,0,0,0,4.892,5.93,12.058,12.058,0,0,0,3.572,7.529v3.691L6.8,47.228a8.486,8.486,0,0,0-6.8,8.3V74.973H53.207V55.527a8.488,8.488,0,0,0-6.8-8.3L35.068,44.961v-3.7c.259-.254.515-.511.751-.789Zm2.792,21.009L34.6,68.165l2.648-20.3,4.652.93-4.493,7.864Zm-27.3-12.687,4.652-.93,2.648,20.3L14.6,61.478,15.8,56.656Zm7.709-1.542,5.61,4.673-5.213,3.723-1.078-8.262Zm9.258,12H24.933L23.247,55.88l3.357-2.4,3.357,2.4Zm-8.507-.887L21.254,57.3l1.7,3.39-1.078,11.86h-.253Zm5.521,3.306h2.628l.989,10.883H24.3Zm4.969-.976,1.7-3.39,1.486,1.062L31.588,72.554h-.253Zm3.536-5.047L28.58,51.924l5.61-4.673.681.136ZM55.625,27.812A18.225,18.225,0,0,1,48.37,42.323h0a6.211,6.211,0,0,1-7.254,0,18.225,18.225,0,0,1-7.255-14.511V19.347H55.625ZM25.062,2.418A12.943,12.943,0,0,1,35.853,8.192l.887,1.331.453.114a5.167,5.167,0,0,1,3.921,5.022v2.27H31.441V19.86a13.122,13.122,0,0,1-6.046,1.886V18.3l-1.881,1.253a13.138,13.138,0,0,1-6.584,2.189V19.347H14.511v2.541a6,6,0,0,0-2.418,1.117V15.386A12.985,12.985,0,0,1,25.062,2.418ZM12.093,27.812a3.623,3.623,0,0,1,2.418-3.405v6.809a3.62,3.62,0,0,1-2.418-3.4Zm4.837,4.837V24.143a15.534,15.534,0,0,0,6.046-1.505v1.546h1.687a15.551,15.551,0,0,0,6.778-1.553v5.181a20.607,20.607,0,0,0,2.941,10.56A9.66,9.66,0,0,1,16.93,32.649ZM26.6,44.742A12.059,12.059,0,0,0,32.65,43.1v2.28L26.6,50.423l-6.046-5.039V43.105A12.007,12.007,0,0,0,26.6,44.742ZM2.419,55.527A6.062,6.062,0,0,1,7.28,49.6l1.53-.306,4.411,7.721-1.213,4.852,6.413,10.69H10.883V60.462H8.465V72.554H2.419Zm48.37,0V72.554H44.742V60.462H42.324V72.554H34.785L41.2,61.863l-1.213-4.852L44.4,49.291l1.53.306a6.064,6.064,0,0,1,4.861,5.93Zm0,0" transform="translate(0 0)"/><path d="M146.418,228.837a2.418,2.418,0,0,1,4.837,0h2.418a4.837,4.837,0,1,0-9.674,0Zm0,0" transform="translate(-122.233 -190.142)"/><path d="M130.418,177.209A1.209,1.209,0,1,1,129.209,176,1.209,1.209,0,0,1,130.418,177.209Zm0,0" transform="translate(-108.652 -149.397)"/><path d="M256,210.9a7.083,7.083,0,0,0,3.161,5.9,5.2,5.2,0,0,0,5.772,0,7.082,7.082,0,0,0,3.16-5.9V208H256Zm2.418-.478h7.255v.478a4.671,4.671,0,0,1-2.083,3.892,2.829,2.829,0,0,1-3.09,0,4.673,4.673,0,0,1-2.083-3.892Zm0,0" transform="translate(-217.304 -176.56)"/><path d="M243.628,158.046a3.632,3.632,0,0,0,3.628-3.628V152H240v2.418A3.632,3.632,0,0,0,243.628,158.046Zm1.209-3.628a1.209,1.209,0,1,1-2.418,0Zm0,0" transform="translate(-203.723 -129.025)"/><path d="M307.628,158.046a3.632,3.632,0,0,0,3.628-3.628V152H304v2.418A3.632,3.632,0,0,0,307.628,158.046Zm1.209-3.628a1.209,1.209,0,1,1-2.418,0Zm0,0" transform="translate(-258.049 -129.025)"/></g></g></svg>