<svg xmlns="http://www.w3.org/2000/svg" width="72.898" height="74.599" viewBox="0 0 72.898 74.599"><path d="M184.853,386.2H131.37a.793.793,0,0,1-.793-.793v-35.8a.793.793,0,1,1,1.586,0,3.664,3.664,0,0,0,5.495,3.173.8.8,0,0,1,1.193.686v24.8h38.525v-24.8a.793.793,0,0,1,1.19-.686,3.664,3.664,0,0,0,5.495-3.173.793.793,0,1,1,1.586,0v35.8A.793.793,0,0,1,184.853,386.2Zm-52.691-1.588h51.9V353.368a5.252,5.252,0,0,1-5.1,1.294v24.4a.793.793,0,0,1-.793.793H138.055a.793.793,0,0,1-.793-.793v-24.4a5.257,5.257,0,0,1-5.1-1.292v31.242Z" transform="translate(-121.663 -311.6)"/><path d="M174.308,379.85H134.195a.793.793,0,0,1-.793-.793V353.469a.8.8,0,0,1,.4-.686,3.676,3.676,0,0,0,1.834-3.173.793.793,0,1,1,1.586,0,3.663,3.663,0,1,0,7.326,0,.794.794,0,0,1,1.588,0,3.663,3.663,0,1,0,7.326,0,.794.794,0,0,1,1.588,0,3.663,3.663,0,1,0,7.326,0,.793.793,0,1,1,1.586,0,3.664,3.664,0,0,0,7.329,0,.793.793,0,1,1,1.586,0,3.676,3.676,0,0,0,1.834,3.173.8.8,0,0,1,.4.686v25.588A.793.793,0,0,1,174.308,379.85Zm-39.318-1.588h38.525V353.9a5.219,5.219,0,0,1-1.434-1.519,5.25,5.25,0,0,1-8.917,0,5.246,5.246,0,0,1-8.912,0,5.248,5.248,0,0,1-8.914,0,5.248,5.248,0,0,1-8.914,0,5.283,5.283,0,0,1-1.434,1.519v24.36Z" transform="translate(-117.803 -311.6)"/><path d="M194.459,366.269A5.253,5.253,0,0,1,190,363.792a5.248,5.248,0,0,1-8.914,0,5.246,5.246,0,0,1-8.912,0,5.248,5.248,0,0,1-8.914,0,5.248,5.248,0,0,1-8.914,0,5.248,5.248,0,0,1-8.914,0,5.248,5.248,0,0,1-8.914,0,5.249,5.249,0,0,1-9.707-2.773.789.789,0,0,1,.071-.327l8.914-19.757a.79.79,0,0,1,.722-.466H190a.794.794,0,0,1,.724.466l8.914,19.757a.825.825,0,0,1,.069.327A5.255,5.255,0,0,1,194.459,366.269Zm-3.666-5.251a3.664,3.664,0,0,0,7.324.163l-8.63-19.125H137.031l-8.63,19.125a3.664,3.664,0,0,0,7.324-.163.793.793,0,1,1,1.585,0,3.663,3.663,0,0,0,7.326,0,.794.794,0,0,1,1.588,0,3.663,3.663,0,0,0,7.326,0,.794.794,0,0,1,1.588,0,3.663,3.663,0,0,0,7.326,0,.794.794,0,0,1,1.588,0,3.663,3.663,0,1,0,7.326,0,.793.793,0,1,1,1.586,0,3.664,3.664,0,0,0,7.329,0,.793.793,0,1,1,1.585,0,3.663,3.663,0,0,0,7.327,0,.794.794,0,0,1,1.588,0Z" transform="translate(-126.81 -323.009)"/><path d="M131.37,354.008a.793.793,0,0,1-.793-.8v-6.238a.793.793,0,1,1,1.586,0v6.238A.793.793,0,0,1,131.37,354.008Z" transform="translate(-121.663 -315.203)"/><path d="M135.137,354.008a.793.793,0,0,1-.793-.8v-6.238a.793.793,0,1,1,1.586,0v6.238A.793.793,0,0,1,135.137,354.008Z" transform="translate(-116.515 -315.203)"/><path d="M138.905,354.008a.8.8,0,0,1-.8-.8v-6.238a.794.794,0,1,1,1.588,0v6.238A.793.793,0,0,1,138.905,354.008Z" transform="translate(-111.369 -315.203)"/><path d="M142.672,354.008a.794.794,0,0,1-.8-.8v-6.238a.794.794,0,1,1,1.588,0v6.238A.793.793,0,0,1,142.672,354.008Z" transform="translate(-106.222 -315.203)"/><path d="M146.437,354.008a.793.793,0,0,1-.793-.8v-6.238a.794.794,0,1,1,1.588,0v6.238A.8.8,0,0,1,146.437,354.008Z" transform="translate(-101.075 -315.203)"/><path d="M150.2,354.008a.793.793,0,0,1-.793-.8v-6.238a.794.794,0,1,1,1.588,0v6.238A.8.8,0,0,1,150.2,354.008Z" transform="translate(-95.927 -315.203)"/><path d="M153.971,354.008a.793.793,0,0,1-.793-.8v-6.238a.793.793,0,1,1,1.586,0v6.238A.793.793,0,0,1,153.971,354.008Z" transform="translate(-90.78 -315.203)"/><path d="M155.188,372.012H139.317a.793.793,0,0,1-.793-.793V355.346a.793.793,0,0,1,.793-.793h15.872a.793.793,0,0,1,.793.793V371.22A.793.793,0,0,1,155.188,372.012Zm-15.079-1.588H154.4V356.141H140.11v14.284Z" transform="translate(-110.804 -303.762)"/><path d="M182.731,348.469H131.94a.8.8,0,0,1-.8-.793v-11.11a.8.8,0,0,1,.8-.793h50.791a.793.793,0,0,1,.8.793v11.11A.793.793,0,0,1,182.731,348.469Zm-50-1.586h49.205v-9.525H132.733Z" transform="translate(-120.887 -329.424)"/><path d="M182.73,341.025H131.94a.793.793,0,0,1-.355-1.5l12.7-6.349a.8.8,0,0,1,.355-.083h25.394a.8.8,0,0,1,.355.083l12.7,6.349a.793.793,0,0,1-.355,1.5Zm-47.43-1.585h44.07l-9.525-4.764h-25.02Z" transform="translate(-120.886 -333.09)"/><path d="M192.746,365.531H129.257a.794.794,0,1,1,0-1.588h63.489a.794.794,0,1,1,0,1.588Z" transform="translate(-124.553 -290.932)"/><path d="M145.173,359.495H142a.794.794,0,0,1,0-1.588h3.173a.794.794,0,1,1,0,1.588Z" transform="translate(-107.138 -299.179)"/><path d="M172.715,344.8H134.623a.8.8,0,0,1-.8-.793v-4.761a.8.8,0,0,1,.8-.793h38.092a.793.793,0,0,1,.8.793v4.761A.793.793,0,0,1,172.715,344.8Zm-37.3-1.586h36.507v-3.176H135.416Z" transform="translate(-117.22 -325.758)"/></svg>