<svg xmlns="http://www.w3.org/2000/svg" width="70.803" height="70.803" viewBox="0 0 70.803 70.803"><defs><style>.a{fill:#03a9b8;}</style></defs><g transform="translate(-488.599 -618.599)"><path class="a" d="M496.887,663.627h25.777s8.829,7.012,0,8.924-27.913,0-27.913,0v-8.924Z" transform="translate(-4.336 -1)"/><g transform="translate(486.599 616.599)"><path d="M22.8,25.6A11.8,11.8,0,1,0,11,13.8,11.8,11.8,0,0,0,22.8,25.6Zm0-21.241a9.44,9.44,0,1,1-9.44,9.44A9.44,9.44,0,0,1,22.8,4.36Z" transform="translate(1.62)"/><path d="M65.99,29.727a41.2,41.2,0,0,1-14.915-4.589,1.18,1.18,0,0,0-1.109,0,41.2,41.2,0,0,1-14.915,4.589A1.18,1.18,0,0,0,34,30.9V44.878A25.744,25.744,0,0,0,50.066,68.571a1.18,1.18,0,0,0,.909,0A25.744,25.744,0,0,0,67.041,44.878V30.9a1.18,1.18,0,0,0-1.051-1.173ZM64.681,44.878A23.371,23.371,0,0,1,50.521,66.2,23.371,23.371,0,0,1,36.36,44.878V31.945a43.522,43.522,0,0,0,14.161-4.432,43.513,43.513,0,0,0,14.161,4.432Z" transform="translate(5.761 4.141)"/><path d="M39.873,42.28,38.2,43.952l7.08,7.08a1.18,1.18,0,0,0,1.669,0L61.109,36.872,59.441,35.2,46.119,48.535Z" transform="translate(6.518 5.978)"/><path d="M31.5,42.061H26.128L17.3,25.092a16.78,16.78,0,0,0,15.613-.732h2.124a9.391,9.391,0,0,1,7.071,3.232c.884-.135,1.758-.3,2.626-.5A11.782,11.782,0,0,0,35.041,22H32.587a1.189,1.189,0,0,0-.63.182,14.348,14.348,0,0,1-15.072,0,1.19,1.19,0,0,0-.63-.182H13.8A11.813,11.813,0,0,0,2,33.8V47.961a5.907,5.907,0,0,0,5.9,5.9h3.54v10.62H13.8V53.861H31.5a5.9,5.9,0,0,0,0-11.8ZM7.9,51.5a3.54,3.54,0,0,1-3.54-3.54V33.8a9.391,9.391,0,0,1,2.218-6.067l7.45,14.327H11.44v2.36h3.815l3.682,7.08Zm13.7,0L8.381,26.084A9.375,9.375,0,0,1,13.8,24.36h.464L28.378,51.5Zm9.9,0h-.464l-3.682-7.08H31.5a3.54,3.54,0,0,1,0,7.08Z" transform="translate(0 3.601)"/></g></g></svg>