<svg xmlns="http://www.w3.org/2000/svg" width="94" height="94" viewBox="0 0 94 94"><defs><style>.a{fill:none;}.b{fill:#03a9b8;}</style></defs><rect class="a" width="94" height="94"/><path class="b" d="M14187.818-7019.181l7.965-1.145s1.1,8.775-.572,8.775a64.885,64.885,0,0,1-7.393-1.264Z" transform="translate(-14106.668 7056.51)"/><path class="b" d="M67.1,55.154l8.434-.289V75.133h-8.9Z" transform="translate(5.438 5.08)"/><g transform="translate(18.787 7.787)"><circle cx="1.5" cy="1.5" r="1.5" transform="translate(20.214 29.213)"/><rect width="6" height="2" transform="translate(18.214 24.213)"/><ellipse cx="1" cy="1.5" rx="1" ry="1.5" transform="translate(33.214 29.213)"/><rect width="4" height="2" transform="translate(32.214 24.213)"/><rect width="3" height="4" transform="translate(26.214 33.213)"/><path d="M4.414,69.507a6.036,6.036,0,0,1,3.617-5.53l2.419-1.058V74.427h2.414V61.863l3.621-1.584v3.285a7.251,7.251,0,0,0,7.243,7.243H35.8a7.251,7.251,0,0,0,7.243-7.243V60.278l3.621,1.584V74.427h2.414V62.919l.723.316,1.207.528.968-2.211-1.207-.528L38.213,55.531V53.81a8.456,8.456,0,0,0,7.243-8.353V23.728h1.207a2.417,2.417,0,0,0,2.414-2.414V18.9a2.417,2.417,0,0,0-2.414-2.414H45.456V12.864A10.877,10.877,0,0,0,34.592,2H24.935A10.877,10.877,0,0,0,14.071,12.864v3.621H12.864A2.417,2.417,0,0,0,10.45,18.9v2.414a2.417,2.417,0,0,0,2.414,2.414h1.207V45.456a8.456,8.456,0,0,0,7.243,8.353v1.721L7.063,61.766A8.45,8.45,0,0,0,2,69.507v4.92H4.414ZM39.42,5.94a8.442,8.442,0,0,1,3.621,6.924v3.621H39.42ZM22.521,4.77a8.415,8.415,0,0,1,2.414-.356h3.621v9.657h2.414V4.414h3.621a8.415,8.415,0,0,1,2.414.356V16.485H22.521Zm-6.036,8.094A8.442,8.442,0,0,1,20.107,5.94V16.485H16.485Zm-3.621,8.45V18.9h33.8l0,2.414Zm3.621,24.142V23.728H43.042V45.456a6.043,6.043,0,0,1-6.036,6.036H30.971V49.077H28.556v2.414H22.521A6.043,6.043,0,0,1,16.485,45.456ZM18.9,59.222l2.414-1.056v2.983h2.414V53.906H35.8v7.243h2.414V58.166l2.414,1.056v4.341A4.834,4.834,0,0,1,35.8,68.391H23.728A4.834,4.834,0,0,1,18.9,63.563Z" transform="translate(-2 -2)"/><rect width="8" height="3" transform="translate(24.214 40.213)"/><path d="M62.486,24.294l-4.828.6a3.6,3.6,0,0,0-2.447,1.445,4.753,4.753,0,0,0-6.416.113,3.6,3.6,0,0,0-2.759-1.3H44.828a4.828,4.828,0,1,0,0,9.657h1.207a3.594,3.594,0,0,0,2.414-.942v14.22A2.417,2.417,0,0,0,46.036,50.5V69.815H48.45V50.5h7.243V69.815h2.414V50.5a2.417,2.417,0,0,0-2.414-2.414V34.15a3.59,3.59,0,0,0,1.965.914l4.828.6a3.621,3.621,0,0,0,4.07-3.593V27.887a3.621,3.621,0,0,0-4.07-3.593ZM47.243,31.188a1.209,1.209,0,0,1-1.207,1.207H44.828a2.414,2.414,0,1,1,0-4.828h1.207a1.209,1.209,0,0,1,1.207,1.207Zm6.036,16.9H50.864V34.638a4.335,4.335,0,0,0,2.414,0ZM52.071,32.395a2.414,2.414,0,1,1,2.414-2.414,2.414,2.414,0,0,1-2.414,2.414Zm12.071-.321a1.19,1.19,0,0,1-.408.9,1.177,1.177,0,0,1-.948.293l-4.828-.6a1.209,1.209,0,0,1-1.057-1.2V28.49a1.209,1.209,0,0,1,1.057-1.2l4.828-.6a1.258,1.258,0,0,1,.155-.009,1.208,1.208,0,0,1,1.2,1.207Z" transform="translate(5.87 2.612)"/></g></svg>